<svg fill="none" xmlns="http://www.w3.org/2000/svg">
<path d="M18.641 18.5033H14.081V15.7713H7.99298L6.24898 18.5033H0.000976562L0.378977 17.9933L6.92698 8.89728L13.109 0.293281L15.881 0.28128H18.641V18.5033ZM14.279 6.34328L12.287 9.26328L10.297 12.1913L12.275 12.2293C12.725 12.2293 13.143 12.2393 13.485 12.2393C13.7678 12.2482 14.051 12.2408 14.333 12.2173L14.305 12.2193C14.329 12.1953 14.333 11.0873 14.317 9.25328L14.279 6.34328ZM23.951 18.5033H20.203V0.28128H24.081C25.6967 0.206848 27.3159 0.2778 28.919 0.49328L28.781 0.477281C29.8644 0.731113 30.8759 1.22823 31.7387 1.93097C32.6016 2.63371 33.2931 3.52362 33.761 4.53328L33.779 4.57928C34.5922 6.0816 34.9573 7.78567 34.831 9.48928L34.833 9.46128C34.8938 10.4941 34.7643 11.5293 34.451 12.5153L34.467 12.4553C34.204 13.5456 33.7161 14.5689 33.0345 15.4595C32.3529 16.3502 31.4927 17.0886 30.509 17.6273L30.467 17.6473C28.905 18.4093 28.175 18.5033 23.951 18.5033ZM24.499 4.66528V13.9733L26.231 13.9213C28.219 13.8553 28.707 13.6833 29.499 12.7633C29.8984 12.2879 30.1967 11.7361 30.3755 11.1415C30.5543 10.5469 30.61 9.9221 30.539 9.30528L30.541 9.32528C30.645 8.56054 30.519 7.78213 30.179 7.08928L30.189 7.11128C29.333 5.26928 28.609 4.84728 26.115 4.72928L24.495 4.66528H24.499ZM45.157 18.4913C44.965 18.4913 44.875 18.4733 44.847 18.4313C44.819 18.3893 44.847 18.3473 44.867 18.2833C45.879 15.6433 46.473 12.5913 46.495 9.40328V9.39328C46.4666 6.29324 45.8953 3.22214 44.807 0.319281L44.867 0.503281C44.839 0.433281 44.835 0.39328 44.855 0.36328C44.901 0.29528 45.083 0.28128 45.569 0.28128C46.197 0.28128 46.379 0.329281 46.479 0.529281C46.957 1.83728 47.369 3.39928 47.641 5.00728L47.663 5.16928C47.877 6.43928 47.999 7.90128 47.999 9.39128C47.999 12.2293 47.557 14.9613 46.739 17.5273L46.791 17.3373L46.427 18.4433L45.595 18.4833C45.389 18.4873 45.257 18.4913 45.157 18.4913ZM36.693 18.4913C36.583 18.4913 36.463 18.4913 36.303 18.4793L35.431 18.4393L35.899 17.7373C37.1073 15.8807 37.8825 13.7761 38.167 11.5793L38.175 11.5033C38.3538 9.53526 38.2609 7.55198 37.899 5.60928L37.919 5.74128C37.4654 3.86977 36.6715 2.09764 35.577 0.51328L35.611 0.56528L35.403 0.279281H37.251L37.603 0.82728C38.3063 2.05377 38.8519 3.36412 39.227 4.72728L39.255 4.84928C39.631 6.20128 39.845 7.75528 39.845 9.35928C39.8487 11.999 39.2531 14.6052 38.103 16.9813L38.149 16.8773C37.461 18.2773 37.349 18.4913 36.689 18.4913H36.693ZM40.741 18.4913C40.5712 18.5112 40.3991 18.4935 40.237 18.4393L40.245 18.4413C40.245 18.3933 40.515 17.8233 40.635 17.5813C40.895 17.0613 41.159 16.4273 41.383 15.7733L41.417 15.6613C42.009 13.8173 42.349 11.6953 42.349 9.49328C42.349 6.49928 41.719 3.65328 40.583 1.07928L40.635 1.21328C40.4918 0.932774 40.3617 0.6458 40.245 0.35328C40.4058 0.29925 40.5764 0.280824 40.745 0.29928H40.739C40.859 0.29928 40.987 0.29928 41.115 0.31128L41.987 0.34928L42.481 1.57928C43.365 3.89728 43.877 6.57928 43.877 9.37928C43.877 12.3093 43.317 15.1073 42.299 17.6753L42.353 17.5233L41.993 18.4293L41.121 18.4693C40.993 18.4693 40.867 18.4793 40.745 18.4793L40.741 18.4913Z" fill="#999999"/>
</svg>
