<svg width="48" height="19" viewBox="0 0 48 19" fill="none" xmlns="http://www.w3.org/2000/svg">
<path d="M18.641 18.2506H14.081V15.5186H7.99298L6.24898 18.2506H0.000976562L0.378977 17.7406L6.92698 8.64459L13.109 0.040595L15.881 0.0285949H18.641V18.2506ZM14.279 6.0906L12.287 9.0106L10.297 11.9386L12.275 11.9766C12.725 11.9766 13.143 11.9866 13.485 11.9866C13.7678 11.9955 14.051 11.9881 14.333 11.9646L14.305 11.9666C14.329 11.9426 14.333 10.8346 14.317 9.0006L14.279 6.0906ZM23.951 18.2506H20.203V0.0285949H24.081C25.6967 -0.0458378 27.3159 0.0251142 28.919 0.240595L28.781 0.224595C29.8644 0.478427 30.8759 0.975547 31.7387 1.67828C32.6016 2.38102 33.2931 3.27094 33.761 4.28059L33.779 4.3266C34.5922 5.82891 34.9573 7.53299 34.831 9.2366L34.833 9.2086C34.8938 10.2414 34.7643 11.2766 34.451 12.2626L34.467 12.2026C34.204 13.2929 33.7161 14.3162 33.0345 15.2068C32.3529 16.0975 31.4927 16.8359 30.509 17.3746L30.467 17.3946C28.905 18.1566 28.175 18.2506 23.951 18.2506ZM24.499 4.41259V13.7206L26.231 13.6686C28.219 13.6026 28.707 13.4306 29.499 12.5106C29.8984 12.0353 30.1967 11.4834 30.3755 10.8888C30.5543 10.2942 30.61 9.66942 30.539 9.0526L30.541 9.0726C30.645 8.30785 30.519 7.52944 30.179 6.8366L30.189 6.85859C29.333 5.01659 28.609 4.59459 26.115 4.47659L24.495 4.41259H24.499ZM45.157 18.2386C44.965 18.2386 44.875 18.2206 44.847 18.1786C44.819 18.1366 44.847 18.0946 44.867 18.0306C45.879 15.3906 46.473 12.3386 46.495 9.15059V9.14059C46.4666 6.04055 45.8953 2.96946 44.807 0.066595L44.867 0.250595C44.839 0.180595 44.835 0.140595 44.855 0.110595C44.901 0.0425947 45.083 0.0285949 45.569 0.0285949C46.197 0.0285949 46.379 0.0765951 46.479 0.276595C46.957 1.5846 47.369 3.14659 47.641 4.75459L47.663 4.9166C47.877 6.1866 47.999 7.6486 47.999 9.1386C47.999 11.9766 47.557 14.7086 46.739 17.2746L46.791 17.0846L46.427 18.1906L45.595 18.2306C45.389 18.2346 45.257 18.2386 45.157 18.2386ZM36.693 18.2386C36.583 18.2386 36.463 18.2386 36.303 18.2266L35.431 18.1866L35.899 17.4846C37.1073 15.628 37.8824 13.5234 38.167 11.3266L38.175 11.2506C38.3538 9.28257 38.2609 7.2993 37.899 5.35659L37.919 5.48859C37.4654 3.61709 36.6715 1.84495 35.577 0.260594L35.611 0.312594L35.403 0.0265951H37.251L37.603 0.574594C38.3063 1.80108 38.8519 3.11144 39.227 4.47459L39.255 4.59659C39.631 5.94859 39.845 7.50259 39.845 9.10659C39.8487 11.7464 39.2531 14.3525 38.103 16.7286L38.149 16.6246C37.461 18.0246 37.349 18.2386 36.689 18.2386H36.693ZM40.741 18.2386C40.5712 18.2585 40.3991 18.2408 40.237 18.1866L40.245 18.1886C40.245 18.1406 40.515 17.5706 40.635 17.3286C40.895 16.8086 41.159 16.1746 41.383 15.5206L41.417 15.4086C42.009 13.5646 42.349 11.4426 42.349 9.24059C42.349 6.24659 41.719 3.40059 40.583 0.826594L40.635 0.960595C40.4918 0.680088 40.3617 0.393115 40.245 0.100594C40.4058 0.0465642 40.5764 0.0281387 40.745 0.0465946H40.739C40.859 0.0465946 40.987 0.0465947 41.115 0.0585947L41.987 0.0965948L42.481 1.32659C43.365 3.64459 43.877 6.32659 43.877 9.12659C43.877 12.0566 43.317 14.8546 42.299 17.4226L42.353 17.2706L41.993 18.1766L41.121 18.2166C40.993 18.2166 40.867 18.2266 40.745 18.2266L40.741 18.2386Z" fill="white"/>
</svg>
