<svg fill="none" xmlns="http://www.w3.org/2000/svg">
<path fill-rule="evenodd" clip-rule="evenodd" d="M12 0.999931C12 0.587908 11.5296 0.352718 11.2 0.599931L4 5.99993H1C0.447715 5.99993 0 6.44765 0 6.99993V12.9999C0 13.5522 0.447715 13.9999 1 13.9999H4L11.2 19.3999C11.5296 19.6471 12 19.412 12 18.9999V0.999931ZM15.634 5.1698C15.9101 4.69151 16.5217 4.52764 17 4.80378C17.9121 5.33039 18.6695 6.08782 19.1962 6.99993C19.7228 7.91205 20 8.94671 20 9.99993C20 11.0532 19.7228 12.0878 19.1962 12.9999C18.6695 13.912 17.9121 14.6695 17 15.1961C16.5217 15.4722 15.9101 15.3084 15.634 14.8301C15.3578 14.3518 15.5217 13.7402 16 13.464C16.6081 13.113 17.113 12.608 17.4641 11.9999C17.8152 11.3919 18 10.7021 18 9.99993C18 9.29778 17.8152 8.60801 17.4641 7.99993C17.113 7.39185 16.6081 6.8869 16 6.53583C15.5217 6.25969 15.3578 5.6481 15.634 5.1698ZM19 1.33968C18.5217 1.06353 17.9101 1.22741 17.634 1.7057C17.3578 2.184 17.5217 2.79559 18 3.07173C19.2162 3.77387 20.2261 4.78378 20.9282 5.99993C21.6304 7.21608 22 8.59564 22 9.99993C22 11.4042 21.6304 12.7838 20.9282 13.9999C20.2261 15.2161 19.2162 16.226 18 16.9281C17.5217 17.2043 17.3578 17.8159 17.634 18.2942C17.9101 18.7725 18.5217 18.9363 19 18.6602C20.5202 17.7825 21.7826 16.5201 22.6603 14.9999C23.5379 13.4797 24 11.7553 24 9.99993C24 8.24457 23.5379 6.52012 22.6603 4.99993C21.7826 3.47974 20.5202 2.21736 19 1.33968Z" fill="white"/>
</svg>
